<svg width="36" height="34" fill="none" xmlns="http://www.w3.org/2000/svg"><path d="M6.044 26.445H1.511A1.51 1.51 0 000 27.955v4.534C0 33.324.677 34 1.511 34h4.533c.835 0 1.512-.676 1.512-1.511v-4.533c0-.835-.677-1.511-1.512-1.511zm14.167 0h-4.533a1.51 1.51 0 00-1.511 1.51v4.534A1.51 1.51 0 0015.677 34h4.534a1.51 1.51 0 001.511-1.511v-4.533a1.51 1.51 0 00-1.51-1.511zm14.167 0h-4.534a1.51 1.51 0 00-1.51 1.51v4.534A1.51 1.51 0 0029.844 34h4.534a1.51 1.51 0 001.51-1.511v-4.533a1.51 1.51 0 00-1.51-1.511zM6.044 13.222H1.511C.677 13.222 0 13.9 0 14.733v4.534c0 .834.677 1.51 1.511 1.51h4.533c.835 0 1.512-.676 1.512-1.51v-4.534c0-.834-.677-1.51-1.512-1.51zm14.167 0h-4.533c-.835 0-1.511.677-1.511 1.511v4.534c0 .834.676 1.51 1.51 1.51h4.534a1.51 1.51 0 001.511-1.51v-4.534a1.51 1.51 0 00-1.51-1.51zm14.167 0h-4.534a1.51 1.51 0 00-1.51 1.511v4.534c0 .834.676 1.51 1.51 1.51h4.534a1.51 1.51 0 001.51-1.51v-4.534a1.51 1.51 0 00-1.51-1.51zM6.044 0H1.511C.677 0 0 .677 0 1.511v4.533c0 .835.677 1.512 1.511 1.512h4.533c.835 0 1.512-.677 1.512-1.512V1.511C7.556.677 6.879 0 6.044 0zm14.167 0h-4.533c-.835 0-1.511.677-1.511 1.511v4.533c0 .835.676 1.512 1.51 1.512h4.534c.835 0 1.511-.677 1.511-1.512V1.511A1.51 1.51 0 0020.212 0zm14.167 0h-4.534a1.51 1.51 0 00-1.51 1.511v4.533c0 .835.676 1.512 1.51 1.512h4.534c.834 0 1.51-.677 1.51-1.512V1.511A1.51 1.51 0 0034.378 0z" fill="#63A60E"/></svg>