<svg width="24" height="24" fill="none" xmlns="http://www.w3.org/2000/svg"><path d="M23.309 17.938l-3.469-3.47a2.472 2.472 0 00-1.756-.72c-.694 0-1.349.274-1.844.77l-1.35 1.35c-1.05-.584-2.444-1.386-3.892-2.834-1.446-1.447-2.248-2.837-2.834-3.892l1.351-1.35c1.005-1.007 1.026-2.623.046-3.601L6.093.722A2.461 2.461 0 004.336 0c-.678 0-1.32.261-1.812.736-.298.24-1.792 1.56-2.35 4.28-.78 3.81 1.013 7.474 6.186 12.65 5.78 5.777 10.713 6.226 12.088 6.226.286 0 .459-.017.505-.023 2.695-.316 3.66-1.512 4.364-2.386.913-1.133.91-2.624-.008-3.545zm-1.151 2.61c-.662.821-1.288 1.597-3.379 1.842 0 0-.115.013-.331.013-1.23 0-5.66-.418-11.035-5.79C2.643 11.84.968 8.567 1.633 5.316 2.12 2.942 3.41 1.933 3.46 1.895l.044-.033.04-.04c.215-.214.496-.333.792-.333.27 0 .52.101.703.286l3.47 3.469c.398.399.377 1.07-.048 1.495L6.933 8.266l-.025.027c-.399.438-.352 1.031-.132 1.417.633 1.143 1.5 2.708 3.169 4.377 1.663 1.663 3.226 2.53 4.365 3.162.114.064.35.171.644.171.348 0 .668-.147.905-.416l1.434-1.434c.214-.214.495-.332.79-.332a.99.99 0 01.705.284l3.467 3.468c.44.442.258 1.117-.097 1.558zM14.54 3.649c1.28.147 2.786.922 3.838 1.974 1.062 1.062 1.839 2.584 1.979 3.877a.745.745 0 101.48-.16c-.177-1.635-1.1-3.463-2.406-4.77-1.295-1.295-3.104-2.215-4.72-2.4a.745.745 0 10-.171 1.479zm-.696 3.119c.692.08 1.65.593 2.277 1.22.633.633 1.147 1.6 1.223 2.3a.745.745 0 101.48-.16c-.129-1.195-.922-2.464-1.65-3.193-.721-.721-1.978-1.51-3.16-1.646a.744.744 0 10-.17 1.48z" fill="#31352B"/></svg>